<svg xmlns="http://www.w3.org/2000/svg" width="24" height="24" viewBox="0 0 24 24">
  <path fill="#4285F4" d="M22.56 12.25c0-.78-.07-1.54-.18-2.27H12v4.3h6.4c-.29 1.55-1.12 2.89-2.35 3.79v2.92h3.76c2.2-2.02 3.47-4.99 3.47-8.81z"/>
  <path fill="#34A853" d="M12 23c2.97 0 5.48-.98 7.31-2.66l-3.76-2.92c-.99.66-2.27 1.05-3.55 1.05-2.89 0-5.33-1.93-6.2-4.5h-3.8V17c1.7 3.32 5.06 5.6 9.06 5.6z"/>
  <path fill="#FBBC05" d="M5.8 14.15c-.2-.66-.31-1.37-.31-2.15s.11-1.49.31-2.15V6.7H1.95c-.6 1.25-.95 2.69-.95 4.3s.35 3.05.95 4.3L5.8 14.15z"/>
  <path fill="#EA4335" d="M12 4.62c1.63 0 3.12.55 4.29 1.66l3.39-3.39C17.47 1.48 14.97.5 12 .5 8.06.5 4.7 2.78 3 6.1L6.8 8.7C7.67 6.07 10.11 4.14 13 4.14z"/>
</svg>